<svg width="20" height="21" viewBox="0 0 20 21" fill="none" xmlns="http://www.w3.org/2000/svg">
<path d="M19.8055 8.5415H19V8.5H10V12.5H15.6515C14.827 14.8285 12.6115 16.5 10 16.5C6.6865 16.5 4 13.8135 4 10.5C4 7.1865 6.6865 4.5 10 4.5C11.5295 4.5 12.921 5.077 13.9805 6.0195L16.809 3.191C15.023 1.5265 12.634 0.5 10 0.5C4.4775 0.5 0 4.9775 0 10.5C0 16.0225 4.4775 20.5 10 20.5C15.5225 20.5 20 16.0225 20 10.5C20 9.8295 19.931 9.175 19.8055 8.5415Z" fill="#FFC107"/>
<path d="M1.15295 5.8455L4.43845 8.255C5.32745 6.054 7.48045 4.5 9.99995 4.5C11.5295 4.5 12.921 5.077 13.9805 6.0195L16.809 3.191C15.023 1.5265 12.634 0.5 9.99995 0.5C6.15895 0.5 2.82795 2.6685 1.15295 5.8455Z" fill="#FF3D00"/>
<path d="M10 20.5C12.583 20.5 14.93 19.5115 16.7045 17.904L13.6095 15.285C12.5718 16.0742 11.3038 16.501 10 16.5C7.39904 16.5 5.19054 14.8415 4.35854 12.527L1.09753 15.0395C2.75253 18.278 6.11354 20.5 10 20.5Z" fill="#4CAF50"/>
<path d="M19.8055 8.5415H19V8.5H10V12.5H15.6515C15.2571 13.6082 14.5467 14.5766 13.608 15.2855L13.6095 15.2845L16.7045 17.9035C16.4855 18.1025 20 15.5 20 10.5C20 9.8295 19.931 9.175 19.8055 8.5415Z" fill="#1976D2"/>
</svg>
